HIERARCHY
ROOT mixamorig:Hips
{
	OFFSET 0.000000 77.714516 0.000000
	CHANNELS 6 Xposition Yposition Zposition Xrotation Yrotation Zrotation
	JOINT mixamorig:Spine
	{
		OFFSET 0.000000 14.685699 -1.734700
		CHANNELS 3 Xrotation Yrotation Zrotation
		JOINT mixamorig:Spine1
		{
			OFFSET 0.000000 17.133286 -2.023825
			CHANNELS 3 Xrotation Yrotation Zrotation
			JOINT mixamorig:Spine2
			{
				OFFSET 0.000000 19.580956 -2.312950
				CHANNELS 3 Xrotation Yrotation Zrotation
				JOINT mixamorig:Neck
				{
					OFFSET 0.000000 22.028564 -2.602067
					CHANNELS 3 Xrotation Yrotation Zrotation
					JOINT mixamorig:Head
					{
						OFFSET 0.000000 7.772293 1.167700
						CHANNELS 3 Xrotation Yrotation Zrotation
						JOINT mixamorig:HeadTop_End
						{
							OFFSET 0.000000 26.518204 3.983900
							CHANNELS 3 Xrotation Yrotation Zrotation
							End Site
							{
								OFFSET 0.000000 26.815781 0.000000
							}
						}
					}
				}
				JOINT mixamorig:LeftShoulder
				{
					OFFSET 11.646600 18.513336 -2.583780
					CHANNELS 3 Xrotation Yrotation Zrotation
					JOINT mixamorig:LeftArm
					{
						OFFSET 23.544209 -6.614426 0.036475
						CHANNELS 3 Xrotation Yrotation Zrotation
						JOINT mixamorig:LeftForeArm
						{
							OFFSET 22.756695 0.000000 -0.000001
							CHANNELS 3 Xrotation Yrotation Zrotation
							JOINT mixamorig:LeftHand
							{
								OFFSET 32.238304 0.000000 -0.000001
								CHANNELS 3 Xrotation Yrotation Zrotation
								JOINT mixamorig:LeftHandThumb1
								{
									OFFSET 4.391930 -2.771759 4.066533
									CHANNELS 3 Xrotation Yrotation Zrotation
									JOINT mixamorig:LeftHandThumb2
									{
										OFFSET 4.087418 -2.359879 2.359871
										CHANNELS 3 Xrotation Yrotation Zrotation
										JOINT mixamorig:LeftHandThumb3
										{
											OFFSET 4.044945 -2.335342 2.335349
											CHANNELS 3 Xrotation Yrotation Zrotation
											JOINT mixamorig:LeftHandThumb4
											{
												OFFSET 3.242561 -1.872101 1.872095
												CHANNELS 3 Xrotation Yrotation Zrotation
												End Site
												{
													OFFSET 2.876892 -1.863678 2.402885
												}
											}
										}
									}
								}
								JOINT mixamorig:LeftHandIndex1
								{
									OFFSET 13.080666 -0.495590 3.860911
									CHANNELS 3 Xrotation Yrotation Zrotation
									JOINT mixamorig:LeftHandIndex2
									{
										OFFSET 4.467804 0.000000 0.000000
										CHANNELS 3 Xrotation Yrotation Zrotation
										JOINT mixamorig:LeftHandIndex3
										{
											OFFSET 4.434097 0.000000 0.000000
											CHANNELS 3 Xrotation Yrotation Zrotation
											JOINT mixamorig:LeftHandIndex4
											{
												OFFSET 3.589699 0.000000 0.000000
												CHANNELS 3 Xrotation Yrotation Zrotation
												End Site
												{
													OFFSET 3.589706 0.000000 0.000200
												}
											}
										}
									}
								}
								JOINT mixamorig:LeftHandMiddle1
								{
									OFFSET 12.178093 0.000000 0.000000
									CHANNELS 3 Xrotation Yrotation Zrotation
									JOINT mixamorig:LeftHandMiddle2
									{
										OFFSET 5.491508 0.000000 0.000000
										CHANNELS 3 Xrotation Yrotation Zrotation
										JOINT mixamorig:LeftHandMiddle3
										{
											OFFSET 5.202805 0.000000 0.000000
											CHANNELS 3 Xrotation Yrotation Zrotation
											JOINT mixamorig:LeftHandMiddle4
											{
												OFFSET 4.456505 0.000000 0.000000
												CHANNELS 3 Xrotation Yrotation Zrotation
												End Site
												{
													OFFSET 4.456505 -0.000046 0.006499
												}
											}
										}
									}
								}
								JOINT mixamorig:LeftHandRing1
								{
									OFFSET 11.850945 -0.053970 -3.835439
									CHANNELS 3 Xrotation Yrotation Zrotation
									JOINT mixamorig:LeftHandRing2
									{
										OFFSET 4.691414 0.000000 0.000000
										CHANNELS 3 Xrotation Yrotation Zrotation
										JOINT mixamorig:LeftHandRing3
										{
											OFFSET 4.518303 0.000000 0.000000
											CHANNELS 3 Xrotation Yrotation Zrotation
											JOINT mixamorig:LeftHandRing4
											{
												OFFSET 3.568130 0.000000 0.000000
												CHANNELS 3 Xrotation Yrotation Zrotation
												End Site
												{
													OFFSET 3.568100 -0.000168 0.014599
												}
											}
										}
									}
								}
								JOINT mixamorig:LeftHandPinky1
								{
									OFFSET 10.491814 -0.458572 -7.033705
									CHANNELS 3 Xrotation Yrotation Zrotation
									JOINT mixamorig:LeftHandPinky2
									{
										OFFSET 4.452301 0.000000 0.000000
										CHANNELS 3 Xrotation Yrotation Zrotation
										JOINT mixamorig:LeftHandPinky3
										{
											OFFSET 3.536598 0.000000 0.000000
											CHANNELS 3 Xrotation Yrotation Zrotation
											JOINT mixamorig:LeftHandPinky4
											{
												OFFSET 2.823502 0.000000 0.000000
												CHANNELS 3 Xrotation Yrotation Zrotation
												End Site
												{
													OFFSET 2.823502 0.000000 0.000600
												}
											}
										}
									}
								}
							}
						}
					}
				}
				JOINT mixamorig:RightShoulder
				{
					OFFSET -11.646600 18.513351 -2.620334
					CHANNELS 3 Xrotation Yrotation Zrotation
					JOINT mixamorig:RightArm
					{
						OFFSET -23.544205 -6.614441 -0.036501
						CHANNELS 3 Xrotation Yrotation Zrotation
						JOINT mixamorig:RightForeArm
						{
							OFFSET -22.759399 0.000000 0.000001
							CHANNELS 3 Xrotation Yrotation Zrotation
							JOINT mixamorig:RightHand
							{
								OFFSET -32.238106 0.000000 0.000001
								CHANNELS 3 Xrotation Yrotation Zrotation
								JOINT mixamorig:RightHandThumb1
								{
									OFFSET -4.492897 -2.767944 4.026622
									CHANNELS 3 Xrotation Yrotation Zrotation
									JOINT mixamorig:RightHandThumb2
									{
										OFFSET -4.113335 -2.374832 2.374833
										CHANNELS 3 Xrotation Yrotation Zrotation
										JOINT mixamorig:RightHandThumb3
										{
											OFFSET -4.066299 -2.347672 2.347678
											CHANNELS 3 Xrotation Yrotation Zrotation
											JOINT mixamorig:RightHandThumb4
											{
												OFFSET -3.138756 -1.812164 1.812160
												CHANNELS 3 Xrotation Yrotation Zrotation
												End Site
												{
													OFFSET -2.613274 -1.789185 2.527684
												}
											}
										}
									}
								}
								JOINT mixamorig:RightHandIndex1
								{
									OFFSET -12.930191 -0.141510 3.700550
									CHANNELS 3 Xrotation Yrotation Zrotation
									JOINT mixamorig:RightHandIndex2
									{
										OFFSET -4.764015 0.000000 0.000000
										CHANNELS 3 Xrotation Yrotation Zrotation
										JOINT mixamorig:RightHandIndex3
										{
											OFFSET -4.419807 0.000000 0.000000
											CHANNELS 3 Xrotation Yrotation Zrotation
											JOINT mixamorig:RightHandIndex4
											{
												OFFSET -3.701851 0.000000 0.000000
												CHANNELS 3 Xrotation Yrotation Zrotation
												End Site
												{
													OFFSET -3.701797 0.000153 -0.018699
												}
											}
										}
									}
								}
								JOINT mixamorig:RightHandMiddle1
								{
									OFFSET -12.168388 0.000000 0.000001
									CHANNELS 3 Xrotation Yrotation Zrotation
									JOINT mixamorig:RightHandMiddle2
									{
										OFFSET -5.385834 0.000000 0.000000
										CHANNELS 3 Xrotation Yrotation Zrotation
										JOINT mixamorig:RightHandMiddle3
										{
											OFFSET -5.321609 0.000000 0.000000
											CHANNELS 3 Xrotation Yrotation Zrotation
											JOINT mixamorig:RightHandMiddle4
											{
												OFFSET -4.501015 0.000000 0.000000
												CHANNELS 3 Xrotation Yrotation Zrotation
												End Site
												{
													OFFSET -4.500992 -0.000168 0.011299
												}
											}
										}
									}
								}
								JOINT mixamorig:RightHandRing1
								{
									OFFSET -11.815239 0.302551 -3.905540
									CHANNELS 3 Xrotation Yrotation Zrotation
									JOINT mixamorig:RightHandRing2
									{
										OFFSET -4.583313 0.000000 0.000000
										CHANNELS 3 Xrotation Yrotation Zrotation
										JOINT mixamorig:RightHandRing3
										{
											OFFSET -4.612907 0.000000 0.000000
											CHANNELS 3 Xrotation Yrotation Zrotation
											JOINT mixamorig:RightHandRing4
											{
												OFFSET -3.358940 0.000000 0.000000
												CHANNELS 3 Xrotation Yrotation Zrotation
												End Site
												{
													OFFSET -3.358910 -0.000198 0.016799
												}
											}
										}
									}
								}
								JOINT mixamorig:RightHandPinky1
								{
									OFFSET -10.511444 -0.263382 -6.996516
									CHANNELS 3 Xrotation Yrotation Zrotation
									JOINT mixamorig:RightHandPinky2
									{
										OFFSET -4.477509 0.000000 0.000000
										CHANNELS 3 Xrotation Yrotation Zrotation
										JOINT mixamorig:RightHandPinky3
										{
											OFFSET -3.497902 0.000000 0.000000
											CHANNELS 3 Xrotation Yrotation Zrotation
											JOINT mixamorig:RightHandPinky4
											{
												OFFSET -2.797302 0.000000 0.000000
												CHANNELS 3 Xrotation Yrotation Zrotation
												End Site
												{
													OFFSET -2.797302 -0.000031 0.002200
												}
											}
										}
									}
								}
							}
						}
					}
				}
			}
		}
	}
	JOINT mixamorig:LeftUpLeg
	{
		OFFSET 13.580900 -8.149200 -1.796100
		CHANNELS 3 Xrotation Yrotation Zrotation
		JOINT mixamorig:LeftLeg
		{
			OFFSET 1.779603 -35.946629 -2.676069
			CHANNELS 3 Xrotation Yrotation Zrotation
			JOINT mixamorig:LeftFoot
			{
				OFFSET -1.779600 -26.652353 -2.057156
				CHANNELS 3 Xrotation Yrotation Zrotation
				JOINT mixamorig:LeftToeBase
				{
					OFFSET -1.192457 -6.581663 13.403625
					CHANNELS 3 Xrotation Yrotation Zrotation
					JOINT mixamorig:LeftToe_End
					{
						OFFSET -0.351332 -0.163919 5.937958
						CHANNELS 3 Xrotation Yrotation Zrotation
						End Site
						{
							OFFSET -0.351332 -0.163919 5.937958
						}
					}
				}
			}
		}
	}
	JOINT mixamorig:RightUpLeg
	{
		OFFSET -13.580900 -8.149200 -2.255300
		CHANNELS 3 Xrotation Yrotation Zrotation
		JOINT mixamorig:RightLeg
		{
			OFFSET -1.779582 -35.946686 -2.316831
			CHANNELS 3 Xrotation Yrotation Zrotation
			JOINT mixamorig:RightFoot
			{
				OFFSET 1.779588 -26.652205 -2.090130
				CHANNELS 3 Xrotation Yrotation Zrotation
				JOINT mixamorig:RightToeBase
				{
					OFFSET 1.192391 -6.582412 13.372187
					CHANNELS 3 Xrotation Yrotation Zrotation
					JOINT mixamorig:RightToe_End
					{
						OFFSET 0.351304 -0.164246 5.913598
						CHANNELS 3 Xrotation Yrotation Zrotation
						End Site
						{
							OFFSET 0.351304 -0.164246 5.913598
						}
					}
				}
			}
		}
	}
}
MOTION
Frames: 4
Frame Time: 0.016667
0.477774 32.926178 45.517452 29.339248 -12.246235 9.763970 6.527275 -0.162342 0.780138 11.773054 -0.197017 1.646015 11.768997 -0.272460 1.677236 -11.017343 0.931610 3.866731 -18.334162 12.194351 -7.460068 -0.000001 -0.000000 -0.000000 2.574059 -32.669437 -2.767088 -19.966426 -15.271014 13.640272 0.000006 -39.951197 0.000001 -3.159616 -24.322350 8.251681 8.190356 26.718057 -11.526439 11.595238 14.435026 40.279115 29.278525 -36.129833 64.641368 -0.000001 0.000002 0.000003 0.116004 3.139479 -7.628228 1.001900 3.278125 -33.981322 0.136223 1.257316 -12.366943 -0.000000 -0.000001 0.000001 0.172349 3.482108 -11.020323 2.251920 4.616186 -51.990457 0.645463 2.675155 -27.126001 0.000000 -0.000001 0.000002 0.261660 3.869332 -14.904233 2.721557 4.946254 -57.620254 0.835471 3.016961 -30.951320 -0.000002 0.000001 0.000001 0.464145 4.487631 -21.269477 2.039269 4.442320 -49.297976 1.945623 4.360267 -48.077999 0.000003 -0.000000 0.000002 -0.646372 24.956014 18.633892 -2.874942 27.029630 19.900743 0.000020 34.348878 0.000011 -12.209948 -11.056930 38.361607 -17.516713 2.279336 -3.623293 13.331603 -20.222896 -10.689766 2.797721 0.549763 -25.827457 -0.000002 0.000006 0.000001 0.348923 -2.870774 10.323106 0.511752 -2.124300 27.086637 0.161487 -1.217030 15.116696 0.000000 0.000001 0.000000 -0.083060 -0.477429 3.909463 0.803911 -2.617628 34.140072 0.504914 -2.110877 26.901455 0.000000 -0.000001 -0.000001 -0.329521 -0.488378 9.868564 0.324324 -1.709161 21.487273 0.291475 -1.623285 20.357599 0.000000 0.000003 -0.000000 -4.216838 3.145849 3.866473 0.532624 -2.164593 27.644709 0.125723 -1.075973 13.329556 -0.000000 0.000000 -0.000000 -120.348357 7.389421 21.840922 134.209898 -9.772289 1.127556 -42.471421 -3.723226 11.061846 -3.927449 0.000003 0.000002 0.000001 -0.000000 0.000000 -126.429356 -5.081527 0.320487 128.445874 -3.294517 -2.437049 -30.877895 -1.435268 -3.817166 -4.368740 0.000010 -0.000000 -0.000000 0.000001 -0.000000 
0.528187 33.943123 45.589722 30.075457 -11.264050 9.199735 6.229097 -0.051715 0.712816 11.354198 -0.027598 1.498789 11.352135 -0.088696 1.520889 -11.487120 0.713026 3.935336 -18.653142 11.306740 -7.300419 0.000001 0.000000 0.000000 2.471962 -32.159242 -3.043393 -19.122117 -15.722834 12.872823 -0.000004 -43.423423 0.000006 -1.995244 -24.549430 8.332541 8.190362 26.718057 -11.526448 11.595248 14.435052 40.279091 29.278514 -36.129822 64.641375 -0.000004 -0.000002 -0.000000 0.115389 3.134924 -7.583334 0.977705 3.242031 -33.556152 0.143043 1.287954 -12.673429 0.000003 -0.000000 0.000001 0.165061 3.444053 -10.641714 2.198857 4.574345 -51.328076 0.642692 2.669729 -27.066443 0.000000 -0.000001 0.000001 0.250602 3.827250 -14.478936 2.641285 4.894613 -56.684433 0.834260 3.014906 -30.927906 -0.000001 -0.000000 -0.000002 0.443114 4.432965 -20.696474 1.974698 4.386123 -48.459116 1.904189 4.322812 -47.530730 -0.000001 -0.000003 -0.000001 -0.480528 24.588686 18.183314 -5.348565 27.887084 20.388941 0.000026 34.514657 -0.000015 -12.013808 -9.504993 35.348999 -17.477711 2.168850 -3.662338 13.334222 -20.225770 -10.659360 2.798700 0.513224 -25.798847 -0.000004 0.000003 -0.000000 0.350175 -2.881644 10.484005 0.512330 -2.125441 27.102580 0.161580 -1.217339 15.120582 -0.000000 -0.000000 0.000000 -0.089677 -0.487381 4.106123 0.804851 -2.619000 34.160320 0.505310 -2.111675 26.912475 0.000000 -0.000002 -0.000000 -0.338585 -0.503101 10.118451 0.324592 -1.709834 21.496287 0.291639 -1.623716 20.363558 0.000000 0.000001 -0.000000 -4.223536 3.110848 4.144407 0.533236 -2.165761 27.660762 0.125752 -1.076108 13.331362 -0.000000 0.000003 0.000001 -119.844808 6.925449 20.332420 131.965511 -9.796026 0.831896 -41.463503 -3.494078 10.438735 -3.850860 0.000001 0.000003 -0.000000 0.000000 0.000000 -125.204047 -4.499906 -0.233610 127.039825 -3.442836 -2.330000 -31.598139 -1.540497 -3.109705 -4.210922 0.000002 0.000004 -0.000000 0.000001 0.000000 
0.570435 35.028900 45.703415 30.790121 -10.370680 8.673266 5.915021 0.017473 0.647279 10.893444 0.065503 1.369597 10.892433 0.019605 1.384715 -11.893986 0.547246 3.976465 -18.832262 10.610891 -7.202429 -0.000001 0.000000 -0.000000 2.374889 -31.540280 -3.283831 -18.089807 -15.958240 11.717219 -0.000011 -46.683790 0.000004 -0.839859 -24.571518 8.564619 8.190357 26.718054 -11.526436 11.595239 14.435052 40.279118 29.278525 -36.129843 64.641347 0.000002 0.000007 0.000003 0.114878 3.131008 -7.544844 0.953991 3.206031 -33.134381 0.150328 1.319993 -12.994320 0.000003 0.000000 -0.000001 0.158010 3.405927 -10.263025 2.145487 4.531264 -50.655852 0.639983 2.664418 -27.008120 0.000005 0.000002 0.000003 0.239789 3.784804 -14.050783 2.560774 4.840927 -55.735652 0.832979 3.012791 -30.903659 0.000002 -0.000000 -0.000002 0.422541 4.377834 -20.120877 1.909589 4.327731 -47.602122 1.861681 4.283626 -46.964067 -0.000000 -0.000001 -0.000002 -0.328750 24.362931 17.718651 -7.490407 28.735692 21.000667 0.000023 34.418829 -0.000016 -11.785740 -8.156393 32.259523 -17.438347 2.057078 -3.700959 13.336903 -20.228725 -10.628548 2.799711 0.476210 -25.769822 -0.000002 -0.000001 0.000003 0.351356 -2.892284 10.642948 0.512951 -2.126624 27.118747 0.161661 -1.217634 15.124506 -0.000000 -0.000000 0.000001 -0.096295 -0.497258 4.302756 0.805775 -2.620370 34.180855 0.505728 -2.112478 26.923646 -0.000000 0.000001 0.000000 -0.347695 -0.518022 10.370584 0.324862 -1.710525 21.505436 0.291817 -1.624199 20.369603 -0.000001 0.000001 0.000001 -4.229847 3.075069 4.426086 0.533839 -2.166931 27.677036 0.125802 -1.076263 13.333199 -0.000000 0.000002 0.000002 -119.129988 6.500589 18.998156 129.651908 -9.877692 0.487876 -40.577741 -3.326929 9.920132 -3.743696 0.000003 0.000006 -0.000000 0.000001 0.000000 -123.842285 -3.957981 -0.742546 125.506475 -3.577959 -2.202828 -32.263850 -1.644685 -2.433030 -4.022746 0.000005 0.000001 0.000000 -0.000000 -0.000000 
0.612526 36.181892 45.864269 31.477668 -9.566648 8.172741 5.567969 0.060208 0.584764 10.361092 0.107161 1.258957 10.360619 0.076862 1.268377 -12.186355 0.414836 4.004137 -18.857073 10.037345 -7.136994 0.000000 0.000000 0.000000 2.280035 -30.904530 -3.520152 -16.788316 -15.999252 10.195049 -0.000007 -49.585404 0.000000 0.107656 -24.409650 8.972434 8.190362 26.718054 -11.526441 11.595234 14.435043 40.279108 29.278531 -36.129836 64.641388 -0.000001 0.000003 0.000005 0.114434 3.127737 -7.512558 0.930744 3.170196 -32.716415 0.158132 1.353321 -13.328445 0.000002 0.000000 0.000000 0.151228 3.367860 -9.885210 2.091971 4.486998 -49.975091 0.637310 2.659195 -26.950738 -0.000004 -0.000000 -0.000000 0.229249 3.742109 -13.620967 2.480253 4.785282 -54.776037 0.831638 3.010548 -30.878100 0.000001 0.000002 0.000005 0.402484 4.322381 -19.544035 1.844178 4.267237 -46.728989 1.818220 4.242757 -46.379638 -0.000001 0.000001 0.000001 -0.197635 24.275085 17.284069 -9.347223 29.376046 21.820197 0.000019 34.187023 -0.000023 -11.713795 -6.903089 29.131078 -17.398590 1.944010 -3.739141 13.339575 -20.231683 -10.597298 2.800770 0.438657 -25.740415 -0.000000 0.000003 0.000000 0.352509 -2.902747 10.800007 0.513553 -2.127814 27.135093 0.161734 -1.217946 15.128495 -0.000002 -0.000005 0.000000 -0.102919 -0.507059 4.499383 0.806737 -2.621782 34.201640 0.506149 -2.113310 26.934972 -0.000000 0.000001 0.000000 -0.356845 -0.533174 10.624972 0.325142 -1.711226 21.514684 0.291988 -1.624654 20.375726 0.000001 0.000001 -0.000001 -4.235775 3.038523 4.711422 0.534472 -2.168126 27.693542 0.125826 -1.076400 13.335053 -0.000000 0.000002 -0.000001 -118.222815 6.125540 17.837541 127.271191 -10.011661 0.097016 -39.793898 -3.222276 9.529703 -3.628300 0.000001 0.000006 0.000001 0.000000 0.000000 -122.387510 -3.502691 -1.180660 123.889441 -3.820629 -2.055701 -32.877932 -1.685968 -2.024074 -3.825799 0.000003 0.000002 0.000000 0.000000 -0.000000 
